<svg xmlns="http://www.w3.org/2000/svg" version="1.1" viewBox="-5.0 -10.0 110.0 135.0">
 <path d="m87.5 94.531h-75c-3.875 0-7.0312-3.1562-7.0312-7.0312v-75c0-3.875 3.1562-7.0312 7.0312-7.0312h28.289c1.2969 0 2.3438 1.0469 2.3438 2.3438s-1.0469 2.3438-2.3438 2.3438h-28.289c-1.293 0-2.3438 1.0508-2.3438 2.3438v75c0 1.293 1.0508 2.3438 2.3438 2.3438h75c1.293 0 2.3438-1.0508 2.3438-2.3438v-75c0-1.293-1.0508-2.3438-2.3438-2.3438h-9.1719c-1.2969 0-2.3438-1.0469-2.3438-2.3438s1.0469-2.3438 2.3438-2.3438h9.1719c3.875 0 7.0312 3.1562 7.0312 7.0312v75c0 3.875-3.1562 7.0312-7.0312 7.0312z"/>
 <path d="m31.633 48.188c-5.3086 0-9.625-4.3164-9.625-9.625s4.3164-9.625 9.625-9.625c5.3047 0 9.625 4.3203 9.625 9.625s-4.3203 9.625-9.625 9.625zm0-14.562c-2.7227 0-4.9375 2.2148-4.9375 4.9375s2.2109 4.9375 4.9375 4.9375c2.7227 0 4.9375-2.2148 4.9375-4.9375s-2.2148-4.9375-4.9375-4.9375z"/>
 <path d="m22.859 94.531c-1.2969 0-2.3438-1.0469-2.3438-2.3438v-24.402c0-1.293 1.0469-2.3438 2.3438-2.3438 1.293 0 2.3438 1.0508 2.3438 2.3438v24.402c0 1.2969-1.0508 2.3438-2.3438 2.3438z"/>
 <path d="m39.707 94.531c-1.293 0-2.3438-1.0469-2.3438-2.3438v-24.402c0-1.293 1.0508-2.3438 2.3438-2.3438 1.2969 0 2.3438 1.0508 2.3438 2.3438v24.402c0 1.2969-1.0469 2.3438-2.3438 2.3438z"/>
 <path d="m18.977 77.109c-3.418 0-6.2031-2.793-6.2031-6.2188v-17.297c0-2.7031 1.0508-5.2383 2.9531-7.1406 1.9023-1.9062 4.4336-2.9531 7.125-2.9531h24.344l2.5547-3.9727c1.8828-2.8867 5.7461-3.707 8.6133-1.8359 1.7656 1.1367 2.8281 3.0898 2.8281 5.2148 0 1.1992-0.33984 2.3594-0.98047 3.3594l-5.5312 8.5938c-0.43359 0.67188-1.1758 1.0742-1.9727 1.0742h-10.652v11.844c0 1.2969-1.0469 2.3438-2.3438 2.3438h-14.512v0.76562c0 3.4297-2.793 6.2188-6.2188 6.2188zm3.875-28.922c-1.4375 0-2.793 0.55859-3.8086 1.5781-1.0195 1.0195-1.5781 2.375-1.5781 3.8281v17.297c0 0.84375 0.67969 1.5312 1.5156 1.5312 0.84375 0 1.5312-0.6875 1.5312-1.5312v-3.1094c0-1.2969 1.0469-2.3438 2.3438-2.3438h14.512v-11.844c0-1.2969 1.0469-2.3438 2.3438-2.3438h11.719l4.8398-7.5195c0.16016-0.24609 0.23438-0.51953 0.23438-0.82422 0-0.51562-0.26172-1.0078-0.6875-1.2812-0.71484-0.46484-1.6641-0.26172-2.1289 0.44922l-3.2422 5.0352c-0.42969 0.67188-1.1719 1.0781-1.9688 1.0781z"/>
 <path d="m22.859 70.129c-1.2969 0-2.3438-1.0469-2.3438-2.3438v-14.043c0-1.2969 1.0469-2.3438 2.3438-2.3438 1.293 0 2.3438 1.0469 2.3438 2.3438v14.043c0 1.2969-1.0508 2.3438-2.3438 2.3438z"/>
 <path d="m31.281 94.531c-1.293 0-2.3438-1.0469-2.3438-2.3438v-14.828c0-1.293 1.0508-2.3438 2.3438-2.3438 1.2969 0 2.3438 1.0508 2.3438 2.3438v14.828c0 1.2969-1.0469 2.3438-2.3438 2.3438z"/>
 <path d="m92.188 84.297h-52.484c-1.2969 0-2.3438-1.0469-2.3438-2.3438s1.0469-2.3438 2.3438-2.3438h52.484c1.2969 0 2.3438 1.0469 2.3438 2.3438s-1.0469 2.3438-2.3438 2.3438z"/>
 <path d="m22.859 84.297h-15.047c-1.2969 0-2.3438-1.0469-2.3438-2.3438s1.0469-2.3438 2.3438-2.3438h15.047c1.2969 0 2.3438 1.0469 2.3438 2.3438s-1.0469 2.3438-2.3438 2.3438z"/>
 <path d="m72.039 60.621c-3.9688 0-7.1953 3.2266-7.1953 7.1953s3.2266 7.1992 7.1953 7.1992 7.1992-3.2305 7.1992-7.1992-3.2305-7.1953-7.1992-7.1953z"/>
 <path d="m78.328 5.4688h-28.328c-1.2969 0-2.3438 1.0469-2.3438 2.3438v12.406c0 1.2969 1.0469 2.3438 2.3438 2.3438h13.469v5.9883c-0.45703 0.22656-0.83594 0.59375-1.0664 1.0625-0.34375 0.6875-0.32422 1.4961 0.042968 2.1719 0.44531 0.80859 0.67969 1.7227 0.67969 2.6367v4.5469c0 2.4023 0.98438 4.6875 2.6875 6.3242v5.9102c0 3.5156 2.8594 6.375 6.375 6.375s6.3594-2.8594 6.3594-6.375v-6.5078c1.3594-1.582 2.125-3.6172 2.125-5.7266v-31.156c0-1.2969-1.0469-2.3438-2.3438-2.3438z"/>
 <path d="m56.25 41.371c-1.2969 0-2.3438-1.0508-2.3438-2.3438v-8.3438c0-1.293 1.0469-2.3438 2.3438-2.3438s2.3438 1.0508 2.3438 2.3438v8.3438c0 1.293-1.0469 2.3438-2.3438 2.3438z"/>
 <path d="m64.25 33.031h-16c-2.1523 0-3.9062-1.7539-3.9062-3.9062v-7.3438c0-2.1523 1.7539-3.9062 3.9062-3.9062h16c2.1523 0 3.9062 1.7539 3.9062 3.9062v7.3438c0 1.8828-1.2969 3.4531-3.1172 3.8164-0.34766 0.089844-0.63281 0.089844-0.78906 0.089844zm-15.219-4.6875h14.438v-5.7812h-14.438z"/>
<text x="0.0" y="117.5" font-size="5.0" font-weight="bold" font-family="Arbeit Regular, Helvetica, Arial-Unicode, Arial, Sans-serif" fill="#000000">Created by Eklip Studio</text><text x="0.0" y="122.5" font-size="5.0" font-weight="bold" font-family="Arbeit Regular, Helvetica, Arial-Unicode, Arial, Sans-serif" fill="#000000">from Noun Project</text></svg>